<svg width="1440" height="1024" viewBox="0 0 1440 1024" fill="none" xmlns="http://www.w3.org/2000/svg">
<g clip-path="url(#clip0)">
<rect width="1600" height="1200" transform="translate(-128 -65)" fill="white"/>
<rect x="-128" y="-65" width="1600" height="1201" fill="#A4E8D3"/>
<mask id="mask0" style="mask-type:alpha" maskUnits="userSpaceOnUse" x="-128" y="-65" width="1600" height="1201">
<rect x="-128" y="-65" width="1600" height="1201" fill="#01002D"/>
</mask>
<g mask="url(#mask0)">
<path fill-rule="evenodd" clip-rule="evenodd" d="M419.837 309.091C419.729 280.849 376.655 249.089 358.255 232.716C321.874 200.33 284.036 170.424 246.549 140.04C209.061 109.656 171.473 79.3548 135.726 45.9976C112.516 24.3442 85.2436 -0.0435276 69.5024 -30.9628C35.9689 -96.8535 141.697 -87.0688 169.084 -88.5101C238.756 -92.1918 318.669 -90.5116 383.975 -124.824C422.96 -145.308 438.506 -179.662 430.133 -229.731C427.434 -246.014 419.445 -264.752 426.213 -280.615C433.439 -297.557 450.064 -307.333 463.862 -313.89C514.189 -337.775 572.053 -340.542 625.302 -343.54C682.72 -346.835 740.679 -345.871 797.693 -346.127C821.868 -346.234 847.116 -356.834 870.137 -365.449C900.317 -376.741 930.14 -389.425 960.07 -401.689C1025.92 -428.605 1093.77 -456.955 1163.43 -463.791C1207.06 -468.074 1254.74 -462.284 1288.63 -425.031C1305.65 -406.326 1314.55 -378.52 1324.39 -353.819C1336.3 -323.979 1347.74 -293.851 1360.41 -264.48C1401.26 -169.885 1459.56 -77.4488 1554.21 -72.8035C1568.52 -72.1034 1582.59 -74.3848 1596.84 -74.8131C1605.91 -75.0767 1613.99 -72.3999 1617.36 -60.8114C1625.84 -31.7453 1599.18 14.1394 1588.25 37.2012C1564.32 87.6817 1537.33 135.897 1512.05 185.365C1495.32 218.08 1466.37 262.786 1466.07 302.535C1465.8 337.951 1504.39 363.55 1525.4 380.994C1545.09 397.327 1580.76 420.183 1582.92 453.408C1583.97 469.519 1575.27 482.87 1566.18 493.231C1550.25 511.351 1531.89 524.134 1517.56 544.807C1494.06 578.724 1474.43 625.392 1477.62 671.095C1479.83 702.764 1494.64 723.503 1513.47 743.328C1521.38 751.663 1527.81 757.56 1528.22 771.092C1528.9 792.581 1522 815.322 1516.32 835.245C1496 906.547 1467.13 975.494 1435.03 1039.87C1418.98 1072.04 1401.65 1104.11 1380.37 1131.56C1366.44 1149.58 1347.65 1171.02 1326.4 1171C1301.79 1171 1275.75 1160.16 1251.83 1152.06C1207.16 1136.91 1163.03 1119.4 1119.07 1101.44C1017.41 1059.88 916.708 1014.95 816.963 966.656C746.704 932.582 674.954 898.459 608.899 853.159C596.017 844.264 583.858 833.891 572.586 822.183C560.542 809.886 545.597 804.384 530.443 800.282C436.387 774.824 333.344 794.368 238.897 806.624C214.924 809.729 190.952 812.851 166.911 815.025C146.245 816.895 121.503 822.257 101.417 814.202C61.8376 798.347 96.4372 739.91 111.065 716.098C162.566 632.261 229.013 561.329 290.601 488.915C319.884 454.43 349.389 420.035 377.08 383.597C391.498 364.654 419.931 333.85 419.837 309.091Z" stroke="#227F85" stroke-opacity="0.5" stroke-width="5"/>
<path fill-rule="evenodd" clip-rule="evenodd" d="M437.584 304.33C421.799 274.445 394.103 252.357 371.113 231.57C338.029 201.644 303.905 173.381 270.295 144.303C238.514 116.806 206.666 88.9956 177.235 57.7689C159.288 38.7267 136.771 15.955 128.271 -12.2091C109.831 -73.2546 209.029 -63.9928 233.518 -65.59C294.399 -69.5417 363.423 -70.4473 419.746 -102.588C454.916 -122.659 469.365 -155.944 461.864 -202.154C459.271 -218.142 454.599 -231.792 460.514 -247.697C467.353 -266.106 483.085 -277.582 497.507 -285.683C542.683 -311.065 596.083 -316.457 645.054 -320.944C695.645 -325.579 748.357 -328.847 797.321 -325.455C816.901 -324.105 839.439 -331.77 858.816 -337.648C888.632 -346.704 918.145 -357.151 947.812 -366.866C1008.11 -386.624 1069.97 -405.658 1132.69 -407.823C1177.97 -409.388 1225.19 -400.908 1262.87 -368.134C1301.05 -334.898 1317.99 -283.378 1339.16 -234.402C1375.73 -149.728 1425.12 -46.7782 1509.72 -28.8885C1522.55 -26.1718 1534.88 -27.6454 1547.69 -26.9785C1554.28 -26.641 1561.78 -25.5708 1565.12 -17.6427C1573.8 2.93906 1550.03 40.5708 1542.03 56.3364C1519.92 99.9039 1495.07 141.339 1471.9 184.067C1453.5 217.994 1430.18 255.691 1423.07 295.908C1414.43 344.712 1470.85 379.437 1490.7 413.8C1525.1 473.389 1459.92 507.34 1427.79 535.752C1390.89 568.37 1360.44 627.875 1393.51 678.342C1406.17 697.639 1421.74 709.141 1427.39 734.324C1436.22 773.71 1429.54 818.718 1422.37 857.65C1411.57 916.177 1394.47 974.069 1371.23 1026.96C1354.58 1064.83 1326.96 1124.22 1286.51 1119.76C1259.28 1116.79 1231.6 1105.93 1205.08 1096.33C1165.38 1081.97 1126.18 1065.59 1087.19 1048.58C997.181 1009.43 908.165 966.256 820.898 918.77C761.354 886.358 595.26 753.902 582.762 749.176C545.499 735.098 503.131 737.576 464.713 739.758C413.609 742.656 362.761 750.164 311.954 757.121C287.769 760.414 263.462 764.44 239.149 766.061C221.844 767.214 199.117 768.202 183.959 755.927C154.373 731.978 187.335 677.181 200.967 653.998C242.727 582.925 295.553 521.377 345.085 458.446C369.391 427.549 394.069 396.701 416.134 363.326C425.033 349.849 447.341 322.788 437.584 304.33Z" stroke="#54A6A1" stroke-opacity="0.5" stroke-width="5"/>
<path fill-rule="evenodd" clip-rule="evenodd" d="M459.423 289.003C416.313 229.201 356.811 184.723 305.458 134.778C279.683 109.703 253.746 83.9434 231.516 54.075C219.952 38.5438 205.512 18.9033 203.284 -2.74658C197.33 -60.6634 286.737 -52.8319 313.498 -55.0306C365.236 -59.2964 423.684 -62.5327 470.623 -92.0881C499.3 -110.156 513.423 -139.81 508.063 -178.786C505.687 -196.08 501.987 -210.771 508.063 -227.752C514.22 -244.955 527.046 -257.093 540.035 -266.193C577.36 -292.364 623.745 -300.73 665.769 -306.964C715.067 -314.225 764.736 -317.06 814.375 -315.446C857.85 -314.055 901.116 -329.709 943.565 -340.028C999.799 -353.69 1057.05 -365.622 1114.6 -363.819C1160.04 -362.386 1205.85 -351.129 1244.7 -321.211C1284.18 -290.741 1307.91 -245.136 1329.31 -195.923C1361.66 -121.528 1401.98 -21.8353 1472.95 6.41907C1483.27 10.5366 1492.89 10.9895 1503.54 11.7059C1508.71 12.0518 1515.39 12.1588 1517.95 18.7386C1524.12 34.5827 1501.31 65.2994 1494.94 76.0049C1474.62 110.18 1452.6 142.816 1431.77 176.538C1412.33 208.02 1391.15 240.829 1379.07 277.721C1359.85 336.478 1421.3 370.835 1419.58 426.825C1418.51 461.585 1391.23 486.512 1369.62 503.756C1343.02 524.961 1304.73 538.903 1291.41 577.599C1281.5 606.422 1297.06 623.197 1309.04 645.069C1329.35 682.126 1330.73 732.36 1328.62 775.256C1325.77 833.222 1314.64 892.045 1295.69 945.326C1287.1 969.479 1276.58 994.604 1261.1 1013.36C1246.59 1030.95 1232.86 1035.45 1213.47 1031.85C1154.12 1020.82 1094.19 990.058 1037.27 962.586C965.762 928.065 895.236 889.953 826.816 847.074C780.162 817.831 732.453 786.892 691.503 746.491C680.83 735.959 669.9 724.512 662.096 710.62C656.196 700.178 653.692 691.556 643.748 685.593C614.274 667.929 573.276 672.549 541.696 674.386C491.199 677.309 440.946 685.091 390.761 692.099C361.476 696.217 306.308 709.17 282.923 678.1C262.738 651.27 287.095 605.524 299.537 581.89C331.009 522.12 371.494 469.663 409.056 415.65C426.27 390.895 444.16 365.951 458.377 338.43C462.009 331.414 467.828 322.116 468.827 313.593C469.948 303.826 464.716 296.374 459.423 289.003Z" stroke="#227F85" stroke-opacity="0.5" stroke-width="5"/>
<path fill-rule="evenodd" clip-rule="evenodd" d="M463.13 302.925C423.294 250.049 375.302 206.608 332.536 157.127C313.36 134.942 293.996 111.668 279.385 84.6035C271.526 70.0492 263.181 51.7287 265.348 33.6389C271.567 -18.2816 345.101 -13.5922 374.809 -16.6333C418.952 -21.1001 469.665 -25.5999 508.698 -53.5958C534.267 -71.9328 543.854 -99.0139 539.081 -133.941C533.956 -171.406 545.414 -198.602 571.49 -219.502C604.182 -245.685 645.449 -256.358 683.408 -263.94C729.141 -273.031 775.453 -277.061 821.78 -275.98C866.835 -274.926 910.485 -284.139 955.243 -290.131C1014.59 -298.067 1075.83 -301.982 1134.5 -285.714C1185.59 -271.547 1231.73 -240.328 1266.32 -192.051C1302.45 -141.663 1320.33 -78.1798 1349.67 -22.4352C1367.97 12.335 1393.48 58.33 1427.68 71.8458C1439.08 76.3538 1459.86 70.2717 1450.75 92.4492C1445.55 105.133 1435.8 116.258 1428.11 126.626C1415.67 143.381 1402.82 159.674 1390.18 176.198C1363.22 211.421 1334.36 247.395 1314.16 289.104C1288.7 341.618 1326.54 382.034 1321.93 435.281C1319.45 463.936 1303.12 486.806 1285.85 504.772C1274.68 516.409 1262.45 526.488 1249.97 535.892C1236.93 545.715 1221.5 553.199 1210.13 565.898C1193.93 583.972 1200.96 605.366 1204 628.731C1209.35 669.791 1210.52 711.5 1207.5 752.911C1203.8 803.67 1195.12 855.879 1176.85 902.006C1169.74 919.964 1160.73 939.001 1147.35 951.042C1133.98 963.082 1120.14 962.258 1104.82 958.632C1059.36 947.918 1013.99 922.988 970.867 899.36C916.893 869.782 863.979 836.726 813.448 799.121C778.568 773.16 743.573 745.115 714.392 709.916C705.905 699.672 697.83 688.703 691.301 676.456C686.818 668.058 684.414 657.221 677.919 650.908C657.596 631.203 616.794 637.087 592.96 638.233C545.394 640.516 498.577 651.37 451.071 654.007C425.144 655.449 384.538 659.075 365.498 632.134C347.592 606.809 363.81 566.92 374.512 542.518C395.544 494.537 423.8 451.789 449.126 407.187C459.538 388.833 470.948 369.631 477.693 348.673C483.689 329.998 473.338 316.482 463.13 302.925Z" stroke="#54A6A1" stroke-opacity="0.5" stroke-width="5"/>
<path fill-rule="evenodd" clip-rule="evenodd" d="M472.927 303.79C441.219 257.26 402.994 215.956 371.057 168.669C352.363 140.977 320.169 94.4223 334.626 55.3813C350.487 12.4808 405.774 11.3122 437.732 7.85577C475.768 3.741 520.435 -1.87978 552.987 -28.6669C563.282 -37.1351 572.052 -48.3437 575.769 -63.1075C579.75 -78.9083 575.398 -92.7339 574.832 -108.551C573.644 -141.733 589.876 -168.372 611.357 -186.666C641.715 -212.531 679.677 -224.76 715.534 -233.286C756.158 -242.902 797.457 -247.643 838.838 -247.441C878.385 -247.276 917.514 -248.346 957.102 -249.581C1008.87 -251.227 1061.37 -248.568 1111.59 -231.788C1161.07 -215.247 1206.04 -184.246 1241.37 -138.646C1275.84 -94.1494 1299.1 -39.7603 1319.46 15.6409C1331.02 47.086 1350.54 94.0766 1378.11 109.96C1390.37 117.029 1402.4 116.543 1389.36 134.928C1372.95 158.078 1350.83 176.652 1331.82 196.452C1304.39 225.025 1276.28 254.158 1253.26 288.129C1238.56 309.822 1232.01 330.873 1233.02 358.961C1233.81 380.358 1237.35 401.532 1235.56 423.011C1231.36 473.426 1198.82 507.998 1170.05 540.192C1151.55 560.897 1134.65 576.69 1125.12 606.143C1113.85 640.954 1109.13 678.827 1101.6 714.971C1093.33 754.662 1083.77 795.949 1065.72 830.909C1049.65 862.033 1030.1 875.99 1000.85 867.604C955.227 854.536 910.255 822.342 869.75 792.559C828.523 762.258 788.004 728.187 753.84 686.538C735.396 664.046 722.807 637.638 706.427 613.476C685.823 583.142 639.212 594.63 611.512 597.198C565.528 601.461 420.839 633.358 434.19 530.045C439.762 486.922 461.708 447.124 477.758 409.071C484.41 393.278 494.037 374.325 495.541 356.229C497.181 336.519 482.46 317.797 472.927 303.79Z" stroke="#54A6A1" stroke-opacity="0.5" stroke-width="5"/>
<path fill-rule="evenodd" clip-rule="evenodd" d="M489.669 307.741C465.438 265.576 436.44 225.74 415.648 180.199C402.161 150.706 388.916 111.298 406.315 80.0922C425.953 44.8761 469.255 36.6669 501.073 32.1795C533.854 27.5603 572.989 23.6739 599.782 -3.02838C608.306 -11.5339 615.333 -23.0036 616.642 -36.7377C617.903 -49.9118 614.342 -63.0859 615.522 -76.4988C618.166 -106.618 633.13 -131.435 652.424 -149.434C709.498 -202.682 794.443 -214.523 863.304 -215.914C897.772 -216.606 933.245 -212.975 967.935 -210.373C1012.95 -206.997 1058.03 -199.751 1100.96 -182.287C1192.24 -145.169 1253.42 -62.8471 1296.15 39.59C1309.6 71.8336 1319.89 106.72 1340.96 132.632C1351.83 146.012 1349.45 155.621 1338.35 167.824C1320.98 186.893 1299.8 201.467 1280.53 217.383C1253.11 240.018 1225.11 262.99 1200.87 290.104C1184.16 308.795 1172.29 326.802 1168.69 354.83C1166.12 374.814 1166.72 395.176 1165.18 415.283C1162.24 453.48 1152.17 491.388 1134.35 523.072C1120.18 548.185 1103.32 571.01 1085.9 592.772C1063.25 621.104 1044.09 649.89 1026.88 683.517C1004.08 728.029 972.028 810.136 918.307 788.407C859.056 764.43 803.52 703.508 765.505 644.48C752.739 624.661 742.259 600.355 725.042 585.74C699.267 563.896 673.115 564.661 642.457 564.752C596.559 564.875 496.682 577.037 495.603 493.118C495.178 459.869 506.967 428.433 512.611 396.452C518.977 360.635 506.218 336.477 489.669 307.741Z" stroke="#313E40" stroke-opacity="0.5" stroke-width="5"/>
<path fill-rule="evenodd" clip-rule="evenodd" d="M507.716 311.501C483.749 256.545 430.004 166.242 470.881 105.132C492.473 72.8372 530.665 60.7008 562.702 53.4683C588.485 47.6182 619.577 45.4213 639.057 20.6219C653.376 2.38848 647.02 -24.1471 652.505 -46.9717C659.314 -75.2681 674.941 -98.4218 694.145 -115.824C747.808 -164.46 822.423 -179.386 886.977 -182.562C954.02 -185.853 1027.89 -170.459 1090.98 -140.846C1169.65 -103.91 1228.58 -33.9714 1269.79 54.5956C1277.4 70.9448 1284.31 87.7218 1291.61 104.268C1296.51 115.368 1303.79 126.106 1307.65 137.781C1314.09 157.249 1306.51 173.162 1294.35 185.85C1276.86 204.116 1255.37 217.116 1235.43 230.824C1208.17 249.584 1180.29 268.007 1154.93 290.017C1137.88 304.828 1120.04 320.782 1113.94 346.478C1109.78 364.004 1108.92 382.567 1109.07 400.718C1109.39 439.636 1107.72 471.109 1092.83 506.753C1068.34 565.271 1030.67 617.889 990.882 661.671C959.655 696.031 910.242 749.407 864.743 726.434C823.921 705.864 800.041 656.627 773.145 616.82C760.068 597.467 745.379 579.793 728.119 566.028C706.358 548.675 685.872 541.393 660.09 538.554C616.696 533.774 551.265 532.531 537.851 469.011C532.898 445.569 535.725 421.288 533.128 397.542C529.733 366.143 519.808 339.221 507.716 311.501Z" stroke="#227F85" stroke-opacity="0.5" stroke-width="5"/>
<path fill-rule="evenodd" clip-rule="evenodd" d="M532.638 313.536C515.571 253.404 493.15 177.621 534.371 124.178C554.337 98.2888 582.423 83.8159 609.604 73.0004C629.072 65.2492 659.983 62.9676 671.918 39.1373C680.684 21.6002 681.898 -2.59255 689.828 -21.3817C700.725 -47.2136 717.232 -68.4903 736.599 -85.1459C787.051 -128.548 852.763 -145.319 912.69 -150.121C1042.9 -160.541 1175.39 -77.5512 1245.07 58.989C1265.84 99.6891 1292.66 143.009 1259.09 184.59C1222.43 229.952 1167.21 251.205 1123.46 283.437C1106.74 295.743 1085.44 310.537 1076.12 332.819C1070.51 346.213 1070.12 363.017 1069.87 377.761C1069.19 415.315 1066.64 449.087 1054.26 484.128C1035.15 538.28 1004.68 588.239 970.148 629.161C940.033 664.845 897.086 706.781 853.35 681.056C819.816 661.286 798.548 619.326 772.493 588.395C743.497 553.947 707.637 530.735 668.257 519.392C629.949 508.387 587.932 500.965 567.743 454.211C560.818 438.173 553.582 417.407 550.986 399.656C546.795 370.388 540.659 341.586 532.638 313.536V313.536Z" stroke="#54A6A1" stroke-opacity="0.5" stroke-width="5"/>
<path fill-rule="evenodd" clip-rule="evenodd" d="M560.426 313.959C552.531 253.239 551.653 189.925 588.338 142.068C605.459 119.742 627.101 103.88 648.986 89.5094C665.088 78.935 681.716 70.016 693.741 52.6803C704.883 36.6293 713.352 17.9925 724.109 1.52148C738.299 -20.3061 755.277 -39.2016 774.392 -54.4387C822.306 -92.5607 880.592 -110.391 936.354 -116.575C963.348 -119.581 992.629 -121.146 1019.44 -112.952C1045.33 -105.046 1070.94 -92.5442 1094.75 -77.9674C1145.36 -47.0102 1189.22 -1.6739 1221.02 55.6451C1242.83 94.9613 1254.62 133.19 1226.38 173.075C1194.55 218.032 1144.64 242.838 1103.5 272.016C1075.28 292.028 1043.66 311.645 1038.39 354.173C1034.19 388.013 1030.78 420.131 1019.93 452.118C1003.77 499.299 980.005 542.038 950.053 577.8C922.661 610.379 888.008 638.026 848.827 620.624C817.784 606.813 793.699 575.872 766.577 553.752C736.351 529.045 703.142 515.424 668.172 504.471C636.744 494.588 607.152 479.402 586.84 447.16C582.683 440.572 578.316 433.399 575.111 426.028C571.021 416.623 571.339 407.3 570.535 396.759C568.443 368.939 563.996 341.441 560.426 313.959Z" stroke="#313E40" stroke-opacity="0.5" stroke-width="5"/>
<path fill-rule="evenodd" clip-rule="evenodd" d="M591.066 308.996C591.74 251.321 603.106 196.813 634.236 151.866C647.544 132.638 663.436 116.801 678.08 99.1813C689.871 84.9769 701.014 71.779 714.572 60.074C746.733 32.3582 772.871 -3.50733 807.05 -28.1876C852.675 -61.1825 904.937 -79.4205 956.795 -86.7123C982.117 -90.2758 1008.27 -91.5214 1033.89 -87.496C1055.9 -84.0397 1076.97 -71.9059 1096.52 -59.4915C1134.83 -35.1742 1172.03 -0.611984 1196.91 43.1146C1251.75 139.518 1143.62 209.607 1088.12 250.653C1062.59 269.534 1023.59 291.402 1013.14 328.801C1005.66 355.519 1001.11 382.691 991.486 408.583C965.631 478.12 913.146 559.906 843.204 549.018C813.276 544.366 785.998 525.468 758.059 512.781C729.29 499.715 699.597 492.432 669.696 484.439C641.75 476.974 619.477 466.349 601.427 437.866C592.799 424.264 593.562 407.981 592.793 391.294C591.538 363.883 590.762 336.316 591.066 308.996Z" stroke="#227F85" stroke-opacity="0.5" stroke-width="5"/>
<path fill-rule="evenodd" clip-rule="evenodd" d="M618.966 301.609C630.202 214.553 671.934 119.513 733.297 68.956C805.477 9.48396 883.674 -40.596 969.914 -54.9927C1009.9 -61.6684 1053.7 -64.9528 1091.42 -43.123C1120.14 -26.5203 1153.49 -1.70252 1169.29 33.1987C1207.95 118.567 1121.96 186.525 1072.97 226.02C1046.59 247.281 1013.02 268 993.137 299.049C981.603 317.051 975.715 340.864 966.402 360.636C938.183 420.553 891.73 468.879 833.866 477.522C807.111 481.515 780.161 476.576 753.609 472.649C726.429 468.633 698.912 466.451 671.901 460.846C650.339 456.368 624.928 448.787 616.987 420.627C606.973 385.141 614.38 337.16 618.966 301.609Z" stroke="#54A6A1" stroke-opacity="0.5" stroke-width="5"/>
<path fill-rule="evenodd" clip-rule="evenodd" d="M646.324 287.624C662.712 205.777 697.414 125.94 755.752 77.0795C786.688 51.1702 822.601 33.285 857.08 15.614C896.163 -4.4132 936.997 -19.9587 978.704 -27.6697C1030.63 -37.2755 1114.73 -45.9339 1141.86 26.2742C1168.79 97.9469 1100.75 161.381 1060.51 197.531C1034.71 220.688 1007.1 241.943 982.449 267.259C969.083 280.984 958.787 296.843 947.476 312.94C916.215 357.542 871.649 392.851 826.225 411.7C782.199 429.973 727.736 438.063 681.263 432.024C661.211 429.429 646.879 420.672 640.814 395.776C632.411 361.167 639.55 321.434 646.324 287.624Z" stroke="#313E40" stroke-opacity="0.5" stroke-width="5"/>
<path fill-rule="evenodd" clip-rule="evenodd" d="M673.51 265.58C689.79 193.517 724.904 127.697 776.124 84.4459C833.538 35.9608 907.469 9.01913 975.42 -4.6814C1011.54 -11.9583 1089.81 -31.6886 1108.22 24.7788C1126.63 81.2463 1073.41 136.893 1042.78 167.527C1005.6 204.649 965.517 240.492 925.481 273.8C890.697 302.76 853.58 332.368 815.903 354.732C794.654 367.419 772.518 377.777 749.759 385.685C732.906 391.493 711.476 400.157 693.807 395.833C649.241 384.914 665.724 300.036 673.51 265.58Z" stroke="#54A6A1" stroke-opacity="0.5" stroke-width="5"/>
<path fill-rule="evenodd" clip-rule="evenodd" d="M707.067 244C742.787 107.721 855.959 40.6957 964.925 17.3337C990.246 11.9108 1061.23 -7.64121 1075.38 33.9891C1089.1 74.3522 1045.48 122.22 1025.06 144.899C961.777 215.174 883.598 267.28 809.516 318.9C786.392 335.013 744.687 369.978 716.003 353.849C684.86 336.305 699.667 272.259 707.067 244Z" stroke="#54A6A1" stroke-opacity="0.5" stroke-width="5"/>
<path fill-rule="evenodd" clip-rule="evenodd" d="M743.655 217.77C774.719 117.41 865.071 59.85 948.141 40.8746C968.487 36.2316 1020.16 21.7756 1035.57 49.7819C1049.83 75.689 1015.8 113.228 1003.07 128.145C974.722 161.363 941.129 188.727 907.941 215.029C877.256 239.364 846.239 264.307 813.952 284.888C796.946 295.722 765.05 318.838 745.724 302.11C724.918 284.114 736.758 240.055 743.655 217.77Z" stroke="#54A6A1" stroke-opacity="0.5" stroke-width="5"/>
<path fill-rule="evenodd" clip-rule="evenodd" d="M783.974 188.449C807.651 122.91 871.063 80.3507 926.999 66.2083C942.051 62.4112 974.582 52.5602 987.279 70.0631C998.968 86.1822 980.129 109.813 971.768 120.727C934.711 169.101 880.445 212.31 830.725 238.849C818.224 245.521 795.752 258.617 782.892 245.15C769.701 231.321 778.536 203.497 783.974 188.449Z" stroke="#227F85" stroke-opacity="0.5" stroke-width="5"/>
<path fill-rule="evenodd" clip-rule="evenodd" d="M826.747 160.918C840.088 128.374 874.958 103.821 903.842 96.0047C924.169 90.5086 948.604 95.2563 930.888 123.585C913.289 151.697 880.634 177.373 852.957 188.756C831.841 197.437 815.29 188.873 826.747 160.918Z" stroke="#313E40" stroke-opacity="0.5" stroke-width="5"/>
<path fill-rule="evenodd" clip-rule="evenodd" d="M-255.146 386.323C-256.002 322.027 -283.996 255.206 -270.171 189.693C-258.818 135.887 -201.663 131.395 -167.375 107.018C-140.128 87.6509 -124.666 53.3434 -109.931 20.4264C-96.6911 -9.12573 -84.7993 -39.5664 -70.8524 -68.6331C-61.824 -87.4241 -46.3208 -124.323 -26.7413 -124.989C-7.99733 -125.631 9.19028 -96.8771 20.0782 -79.8797C34.2744 -57.7238 46.8602 -34.1035 60.6454 -11.5939C83.8766 26.3747 111.75 54.4788 143.666 81.0773C179.986 111.342 216.906 140.574 254.425 168.771C282.05 189.594 309.862 210.261 336.415 233.141C353.071 247.497 389.831 274.433 390 300.9C390.08 313.529 380.277 327.515 373.668 337.61C362.483 354.698 349.736 370.321 336.948 385.607C313.13 414.082 288.302 441.264 263.744 468.776C231.868 504.482 201.421 539.604 173.399 580.14C144.427 622.098 116.749 665.439 88.5053 708.188C69.3773 737.148 50.2694 769.67 22.679 787.44C-11.8782 809.654 -40.2435 786.231 -75.1914 785.96C-105.255 785.721 -103.038 700.685 -106.858 677.04C-110.692 653.107 -119.141 630.827 -122.415 606.837C-126.498 576.89 -126.552 546.252 -127.556 515.984C-128.776 478.961 -129.261 443.716 -161.675 429.598C-180.123 421.577 -200.08 419.89 -219.174 415.085C-231.544 411.967 -254.876 406.636 -255.146 386.323Z" stroke="#54A6A1" stroke-opacity="0.5" stroke-width="5"/>
<path fill-rule="evenodd" clip-rule="evenodd" d="M-240.366 374.886C-243.518 320.99 -262.135 252.008 -244.53 196.374C-229.489 148.831 -182.45 142.668 -150.776 117.693C-124.628 97.094 -112.988 63.3855 -99.9175 30.2704C-89.4314 3.70575 -79.2625 -23.1143 -67.3593 -48.8303C-58.5872 -67.7815 -45.1927 -99.776 -26.9534 -103.698C-10.5562 -107.225 7.02856 -78.9791 16.2326 -64.6092C29.6607 -43.631 41.1455 -20.8484 53.0081 1.4563C73.8521 40.6358 95.1955 75.8686 125.702 104.65C156.344 133.554 189.867 155.167 223.748 177.661C250.253 195.261 276.624 213.372 301.807 233.691C320.566 248.819 347.537 268.182 356.12 295.159C362.915 316.499 328.454 351.913 318.292 364.413C297.373 390.112 275.207 414.238 253 438.216C225.928 467.433 197.992 492.985 174.084 526.314C131.323 585.903 95.5801 660.109 40.5584 704.398C7.3727 731.11 -29.5581 737.941 -66.4686 733.945C-81.0844 732.363 -84.5932 707.174 -86.4354 692.483C-89.4989 668.077 -89.8835 643.251 -92.2385 618.746C-94.445 595.807 -99.3439 574.013 -103.291 551.519C-107.286 528.728 -108.406 505.377 -111.348 482.43C-113.17 468.183 -114.972 451.605 -122.941 440.152C-131.187 428.295 -144.79 423.327 -156.68 419.553C-179.009 412.533 -238.14 412.92 -240.366 374.886Z" stroke="#227F85" stroke-opacity="0.5" stroke-width="5"/>
<path fill-rule="evenodd" clip-rule="evenodd" d="M-221.344 352.324C-226.644 302.852 -234.064 241.234 -212.473 195.654C-194.826 158.386 -157.188 150.346 -130.305 126.062C-107.945 105.869 -99.4991 73.7514 -88.4002 43.9052C-79.2928 19.4243 -70.1382 -5.16367 -59.1001 -28.4597C-50.7286 -46.1271 -39.9402 -70.0814 -23.3188 -76.2448C-9.10759 -81.5113 6.94669 -57.9191 14.8253 -46.1765C28.2399 -26.1638 39.1768 -3.74003 50.0395 18.3875C67.8086 54.5946 84.1599 93.2703 109.45 122.721C134.024 151.3 163.216 168.17 192.955 187.137C215.734 201.669 238.37 216.761 259.832 234.091C276.312 247.389 296.734 263.148 305.322 285.275C312.748 304.358 293.683 326.946 284.157 340.409C268.427 362.627 250.968 383.01 233.753 403.475C215.173 425.553 194.596 445.919 176.617 468.541C138.811 516.145 108.606 568.851 62.0093 605.321C31.8315 628.946 -8.77679 650.407 -44.45 646.548C-70.1045 643.767 -68.4167 574.463 -70.8809 552.319C-74.9316 516.112 -82.7562 478.07 -95.1851 444.718C-105.859 416.139 -131.223 407.326 -154.555 400.916C-169.171 396.892 -184.49 394.719 -198.627 388.498C-214.992 381.29 -219.123 373.061 -221.344 352.324Z" stroke="#54A6A1" stroke-opacity="0.5" stroke-width="5"/>
<path fill-rule="evenodd" clip-rule="evenodd" d="M-203.601 329.135C-206.756 287.309 -206.047 237.848 -185.607 201.667C-167.695 169.976 -135.802 161.632 -113.119 136.667C-95.4161 117.19 -88.4632 85.4321 -78.9427 59.6745C-67.3074 28.1811 -51.0029 -29.986 -21.6509 -41.8373C5.65371 -52.855 34.2084 17.5265 44.0937 38.5139C59.7427 71.7321 72.8309 108.161 91.811 138.837C108.156 165.247 130.055 179.846 153.299 195.535C182.935 215.574 227.929 239.334 243.774 278.387C255.585 307.487 217.179 350.749 204.063 370.911C190.347 391.973 180.016 416.938 165.86 437.257C143.522 469.32 107.325 495.135 77.4391 514.835C48.3844 533.999 10.6538 555.209 -22.3064 553.946C-43.969 553.121 -48.0907 512.285 -52.7124 492.338C-59.3342 463.98 -68.1384 438.569 -87.051 419.282C-106.301 399.648 -128.991 390.397 -152.843 382.301C-165.087 378.174 -179.053 374.955 -190.006 366.62C-202.108 357.55 -202.385 345.212 -203.601 329.135Z" stroke="#313E40" stroke-opacity="0.5" stroke-width="5"/>
<path fill-rule="evenodd" clip-rule="evenodd" d="M-181.982 305.026C-181.807 268.892 -175.038 230.359 -154.968 202.486C-138.252 179.269 -112.086 171.509 -96.0837 147.775C-83.4084 128.985 -76.9563 102.606 -68.4702 80.7858C-58.0916 54.0461 -43.416 7.33376 -17.6075 -1.94629C7.58138 -10.98 29.8608 40.4709 39.5188 60.8296C53.6622 90.6818 65.1117 122.324 79.3832 152.094C90.5633 175.451 104.235 190.504 122.44 205.557C143.81 223.239 173.626 242.825 185.042 272.078C193.272 293.258 173.35 327.101 166.117 345.76C161.267 358.292 156.829 371.021 154.391 384.605C152.492 395.182 152.303 404.972 146.801 414.055C132.947 436.902 102.572 439.883 81.9627 447.414C54.5917 457.408 25.5504 468.766 -3.09358 470.934C-20.6989 472.289 -29.6834 452.489 -39.732 438.561C-51.6058 422.095 -68.4163 410.252 -83.0986 397.827C-102.475 381.402 -123.563 371.186 -145.377 360.723C-155.217 356.001 -166.774 351.369 -174.398 341.982C-182.359 332.251 -182.042 318.068 -181.982 305.026Z" stroke="#54A6A1" stroke-opacity="0.5" stroke-width="5"/>
<path fill-rule="evenodd" clip-rule="evenodd" d="M-159.276 283.575C-155.797 253.226 -144.956 224.221 -126.645 202.767C-112.608 186.296 -93.9671 177.022 -82.7014 157.232C-72.2043 138.784 -64.8894 117.808 -56.2194 98.0838C-47.0437 77.2312 -33.4116 42.3781 -12.2489 36.7037C10.5588 30.5929 28.1281 65.7508 37.8566 85.2363C50.1471 109.861 59.4845 136.355 70.4738 161.828C78.7526 180.814 89.3129 198.177 101.803 213.341C114.903 229.327 132.668 244.637 139.295 266.618C145.153 286.087 134.191 309.641 132.256 329.381C130.187 350.473 133.814 372.627 122.339 390.737C98.675 428.085 39.2859 421.159 5.33386 421.958C-28.1665 422.781 -55.1002 399.928 -82.2093 378.186C-100.116 363.831 -118.764 351.675 -137.122 338.3C-155.837 324.654 -162.336 310.283 -159.276 283.575Z" stroke="#54A6A1" stroke-opacity="0.5" stroke-width="5"/>
<path fill-rule="evenodd" clip-rule="evenodd" d="M-138.179 266.205C-127.892 222.239 -95.7607 198.871 -72.7907 165.645C-53.9965 138.445 -39.9042 82.1149 -8.25223 74.6636C27.6834 66.2067 49.1963 140.843 61.6898 169.643C75.5527 201.583 100.243 227.563 110.51 261.374C115.907 279.121 111.272 295.68 108.399 313.418C105.248 332.895 102.881 352.809 92.0061 368.487C70.6012 399.339 28.7965 399.124 -1.31065 399.973C-32.4769 400.855 -60.0476 379.713 -84.8795 358.612C-111.216 336.266 -148.716 311.291 -138.179 266.205Z" stroke="#54A6A1" stroke-opacity="0.5" stroke-width="5"/>
<path fill-rule="evenodd" clip-rule="evenodd" d="M-120.949 254.283C-109.356 222.958 -84.9965 197.492 -65.23 173.452C-48.7319 153.41 -30.9835 113.065 -5.82861 110.189C23.7362 106.797 41.6545 149.879 53.2874 176.295C64.7369 202.253 81.235 229.661 87.5747 258.15C94.1862 287.827 76.5805 327.796 59.7902 348.796C41.0633 372.214 10.4249 380.866 -15.8647 379.932C-43.3911 378.982 -68.6479 359.628 -89.4948 339.554C-111.782 318.095 -134.43 290.646 -120.949 254.283Z" stroke="#54A6A1" stroke-opacity="0.5" stroke-width="5"/>
<path fill-rule="evenodd" clip-rule="evenodd" d="M-104.96 248.385C-93.8873 222.332 -74.6933 200.292 -56.9957 180.633C-43.3381 165.456 -23.1851 139.648 -3.48099 139.016C18.1956 138.319 36.5666 159.981 45.1842 182.184C53.6793 204.084 62.6302 231.542 63.9021 255.568C66.6635 307.888 10.4418 366.496 -31.7755 361.727C-71.8027 357.204 -127.038 300.295 -104.96 248.385Z" stroke="#54A6A1" stroke-opacity="0.5" stroke-width="5"/>
<path fill-rule="evenodd" clip-rule="evenodd" d="M-90.1741 245.513C-74.8984 211.567 -37.7933 163.173 -3.44161 162.024C35.9884 160.71 45.8867 214.563 40.7472 253.591C35.5261 293.422 -9.93398 351.076 -46.1824 343.286C-81.5607 335.684 -108.278 285.771 -90.1741 245.513Z" stroke="#227F85" stroke-opacity="0.5" stroke-width="5"/>
<path fill-rule="evenodd" clip-rule="evenodd" d="M-74.5621 240.024C-61.6286 211.602 -34.0296 176.101 -5.24441 175.026C29.0538 173.755 28.4068 219.222 20.6292 247.521C12.5416 276.903 -23.0776 327.086 -53.1096 319.163C-82.3127 311.428 -86.9563 267.265 -74.5621 240.024Z" stroke="#54A6A1" stroke-opacity="0.5" stroke-width="5"/>
<path fill-rule="evenodd" clip-rule="evenodd" d="M-60.9644 236.753C-52.4274 216.472 -31.0613 190.84 -10.7496 190.02C14.0772 189.034 9.25112 225.096 2.83656 242.502C-4.78792 263.213 -30.3448 299.201 -51.792 293.369C-72.908 287.628 -68.0075 253.463 -60.9644 236.753Z" stroke="#54A6A1" stroke-opacity="0.5" stroke-width="5"/>
<path fill-rule="evenodd" clip-rule="evenodd" d="M1106.93 1395.51C1051.98 1436.2 989.858 1469.78 931.277 1503.92C845.669 1553.8 758.8 1602.34 668.848 1639.5C620.621 1659.42 558.128 1688.14 506.381 1672.53C487.461 1666.83 470.207 1649.58 453.243 1638.37C429.852 1622.91 406.116 1608.22 382.42 1593.5C334.888 1563.98 287.208 1534.77 240.492 1503.36C217.997 1488.24 196.17 1469.18 172.751 1456.28C159.066 1448.73 142.689 1452.26 128.065 1452.74C94.1919 1453.85 60.3386 1455.96 26.4854 1457.75C-14.9224 1459.94 -56.4246 1462.27 -97.8795 1461.41C-116.577 1461.01 -162.369 1465.06 -172.662 1445.41C-178.199 1434.82 -165.148 1415.74 -159.097 1406.91C-147.988 1390.68 -135.22 1376.05 -122.62 1361.57C-93.4817 1328.09 -62.5356 1296.21 -36.6346 1258.81C-23.3267 1239.59 -5.89077 1216.1 -14.5784 1189.85C-23.3469 1163.35 -38.5368 1140.39 -47.8044 1113.97C-58.4751 1083.57 -62.8998 1051.93 -67.9384 1019.7C-71.6684 995.872 -80.3559 974.762 -88.5242 952.796C-97.549 928.517 -106.898 904.032 -113.164 878.429C-117.305 861.516 -123.99 831.089 -109.501 820.382C-88.9154 805.157 -50.3136 817.485 -26.8477 821.971C5.58244 828.16 37.7765 836.044 70.1189 842.834C93.5983 847.772 117.159 853.187 141.029 853.763C179.51 854.693 218.118 851.475 256.498 848.48C327.563 842.932 398.12 835.41 469.425 835.41C531.896 835.41 676.261 923.612 710.054 939.142C777.504 970.145 846.748 999.534 910.576 1040.78C927.844 1051.95 954.419 1066.83 963.505 1089.82C969.11 1103.98 966.533 1112.17 979.753 1121.3C997.79 1133.75 1020.9 1138.64 1040.86 1144.21C1073.02 1153.18 1105.42 1160.78 1137.72 1168.9C1203.05 1185.29 1267.94 1203.82 1333 1221.66C1352.67 1227.05 1376.47 1228.24 1395.22 1237.74C1407.31 1243.84 1406.05 1251.51 1396.7 1260.78C1380.29 1277.04 1357.29 1286.07 1337.9 1295.35C1309.5 1308.93 1280.63 1321.06 1251.75 1333.01C1222.86 1344.96 1193.83 1356.54 1164.94 1368.51C1145.85 1376.4 1124.08 1382.81 1106.93 1395.51Z" stroke="#54A6A1" stroke-opacity="0.5" stroke-width="5"/>
<path fill-rule="evenodd" clip-rule="evenodd" d="M1061.71 1386.56C1003.58 1427.33 939.06 1459.81 876.857 1491.5C797.249 1532.08 715.839 1570.12 631.96 1595.49C582.711 1610.37 524.603 1626.81 474.281 1609.74C456.329 1603.65 442.917 1589.96 427.528 1577.87C409.987 1564.09 391.772 1551.45 373.556 1539.01C336.059 1513.41 298.167 1488.69 259.878 1464.84C239.598 1452.15 217.274 1435.17 194.363 1430.77C176.148 1427.26 155.456 1432.33 137.16 1433.81C104.21 1436.46 71.2669 1439.2 38.3036 1441.52C0.266937 1444.2 -37.8776 1446.67 -75.9952 1446.24C-97.2399 1446 -133.711 1449.95 -148.736 1433.2C-161.844 1418.58 -114.12 1365.7 -105.727 1355.65C-79.517 1324.28 -51.9508 1294.41 -27.5555 1260.87C-13.1383 1241.09 4.41605 1217.03 10.4946 1190.81C15.6692 1168.47 5.68439 1143.01 -0.212036 1122.36C-7.58594 1096.49 -13.5363 1069.67 -22.1044 1044.34C-29.7346 1021.77 -41.8784 1001.67 -52.5446 981.158C-64.2767 958.592 -76.1572 935.655 -84.8669 911.036C-90.2034 895.888 -99.0345 870.52 -88.4291 856.08C-76.1775 839.431 -38.4106 850.311 -22.887 852.684C8.6056 857.563 39.8553 864.816 71.132 871.311C123.08 882.091 172.606 891.52 225.505 889.261C294.393 886.311 363.214 879.371 432.089 875.531C457.523 874.097 483.362 871.212 508.817 872.77C523.409 873.668 534.521 879.108 543.008 891.38C554.598 908.127 581.294 917.399 599.86 927.009C628.809 941.984 658.123 955.913 687.355 970.023C751.528 1001.01 816.935 1030.88 877.795 1070.96C897.049 1083.64 919.097 1097.77 933.339 1118.71C941.286 1130.39 939.282 1141.64 944.133 1154.05C950.556 1170.38 971.672 1177.75 984.295 1183.09C1008.66 1193.41 1034.02 1200.32 1059.18 1206.8C1116.12 1221.46 1173.2 1231.09 1231.06 1238.19C1244.62 1239.84 1298.02 1245.55 1269.97 1273.07C1238.99 1303.5 1194.25 1318.41 1157.77 1335.55C1124.91 1350.96 1092.02 1365.3 1061.71 1386.56Z" stroke="#227F85" stroke-opacity="0.5" stroke-width="5"/>
<path fill-rule="evenodd" clip-rule="evenodd" d="M981.379 1379.02C926.741 1414.89 866.214 1441.65 807.369 1467.25C735.962 1498.31 662.765 1526 587.872 1541.51C540.826 1551.25 488.957 1558.73 442.228 1542.55C410.317 1531.51 385.632 1501.65 357.604 1481.11C329.576 1460.57 300.413 1441.29 270.379 1425.22C251.739 1415.25 231.687 1405.2 210.946 1406.52C160.516 1409.71 110.147 1417.32 59.6624 1421.02C26.2651 1423.49 -7.19957 1425.52 -40.6981 1424.91C-60.8986 1424.55 -88.6498 1426.03 -106.534 1413.06C-126.302 1398.72 -21.0448 1276.25 -11.0966 1262.47C13.845 1227.91 44.0478 1182.04 39.2256 1132.89C34.6128 1085.9 14.6217 1050.82 -7.98987 1014.01C-20.822 993.065 -61.9725 937.116 -46.7225 909.879C-38.0102 894.31 -9.29331 899.7 4.34924 900.761C31.2359 902.851 57.9739 907.344 84.7188 911.245C123.715 916.898 163.785 925.629 202.95 928.188C230.221 929.965 257.655 927.587 284.974 927.538C324.146 927.472 363.317 927.834 402.489 928.262C435.38 928.624 468.547 928.262 501.323 932.113C521.699 934.483 537.165 939.807 551.781 954.85C564.498 967.934 583.685 975.595 599.894 983.914C626.666 997.648 653.789 1010.38 680.824 1023.31C737.427 1050.4 794.679 1076.93 848.857 1110.78C873.589 1126.22 915.172 1147.85 920.974 1185.3C923.067 1198.8 924.607 1204.64 935.413 1212.32C950.751 1223.21 969.121 1228.12 986.33 1232.39C1026.45 1242.35 1067.73 1240.86 1107.78 1250.7C1124.09 1254.76 1145.38 1263.52 1126.76 1283.56C1105.03 1307.01 1073.41 1319.89 1047.38 1334.37C1034.38 1341.6 1021 1348.36 1008.66 1357.19C999.182 1363.98 991.071 1372.7 981.379 1379.02Z" stroke="#54A6A1" stroke-opacity="0.5" stroke-width="5"/>
<path fill-rule="evenodd" clip-rule="evenodd" d="M877.894 1367.82C827.415 1396.95 772.594 1418.13 718.757 1437.23C658.96 1458.41 597.719 1475.96 535.669 1483.42C492.824 1488.59 447.173 1490.12 405.589 1474.29C379.291 1464.28 361.462 1443.22 338.832 1425.56C304.679 1398.86 267.727 1377.72 226.695 1382.86C180.694 1388.62 134.542 1392.94 88.2394 1395.82C60.3096 1397.56 32.2719 1398.86 4.30835 1397.65C-13.372 1396.89 -36.1501 1395.62 -51.531 1385.84C-72.1109 1372.75 5.19172 1273.14 14.8276 1258.62C38.725 1222.62 56.2435 1184.84 66.4795 1140.23C74.8274 1103.83 57.7742 1075.22 40.1815 1047.99C29.2443 1031.08 -6.09621 988.549 4.96918 966.591C11.0379 954.482 31.0379 955.109 41.7796 954.491C62.2516 953.319 82.8112 954.54 103.283 955.076C133.512 955.901 165.69 950.234 195.663 954.796C262.089 964.892 328.347 973.636 395.184 980.556C432.028 984.367 469.095 987.831 505.609 995.181C518.717 997.82 532.257 1000.62 544.678 1006.59C552.669 1010.42 557.025 1016.96 563.768 1022.32C595.919 1047.84 637.888 1060.97 674.098 1077.33C722.237 1099.07 770.632 1120.48 817.489 1146.16C842.135 1159.67 876.559 1175.2 893.518 1202.77C898.642 1211.1 896.458 1217.77 899.681 1225.78C903.389 1235.02 914.657 1237.77 921.933 1240.34C938.447 1246.19 1007.57 1255.03 975.716 1289.34C960.517 1305.68 941.151 1316.16 924.016 1329.01C917.813 1333.66 911.764 1338.34 906.592 1344.61C897.941 1355.14 889.418 1361.14 877.894 1367.82Z" stroke="#313E40" stroke-opacity="0.5" stroke-width="5"/>
<path fill-rule="evenodd" clip-rule="evenodd" d="M767.63 1355.2C667.979 1402.34 551.192 1434.45 442.547 1428.23C406.417 1426.15 367.544 1419.22 336.226 1395.51C317.759 1381.5 303.002 1365.69 280.819 1360.63C264.805 1356.98 247.561 1361.12 231.453 1362.62C208.121 1364.8 184.776 1366.74 161.41 1368.31C132.443 1370.23 103.381 1371.72 74.3604 1370.93C53.6233 1370.36 24.9874 1371 6.97333 1357.4C-14.534 1341.19 40.2108 1265.11 47.9137 1251.56C66.5832 1218.7 79.6713 1186.87 84.4012 1147.28C85.7931 1135.74 90.4825 1123.91 89.8743 1112.29C89.2392 1100.41 83.2458 1089.84 77.7119 1080.5C70.4752 1068.27 45.3663 1039.24 52.5557 1024.32C56.5288 1016.08 71.4414 1015.04 79.1713 1013.3C93.6717 1010 108.382 1008.23 122.97 1005.61C147.721 1001.14 172.296 986.597 197.134 987.009C263.927 988.096 331.685 1013.38 397.14 1027.26C436.053 1035.54 475.23 1043.06 513.67 1054.27C525.833 1057.83 538.36 1061.5 549.921 1067.53C557.989 1071.73 563.172 1079.22 570.645 1083.92C599.301 1101.99 632.255 1112.96 663.026 1125.13C702.973 1140.95 743.055 1156.29 782.725 1173.13C807.591 1183.69 839.565 1192.98 860.991 1212.56C876.64 1226.85 865.944 1231.13 857.687 1244.45C853.471 1251.24 854.444 1257.93 852.612 1265.61C849.998 1276.59 842.605 1284.49 835.673 1291.6C826.112 1301.41 813.375 1309.49 805.557 1321.53C802.8 1325.76 802.929 1331.02 800.699 1334.71C794.212 1345.46 777.002 1350.77 767.63 1355.2Z" stroke="#54A6A1" stroke-opacity="0.5" stroke-width="5"/>
<path fill-rule="evenodd" clip-rule="evenodd" d="M661.68 1338.41C580.802 1368.05 490.811 1384.92 405.319 1377.09C375.574 1374.36 345.647 1368.02 317.939 1354.1C305.332 1347.78 295.869 1340.74 282.056 1340.36C250.004 1339.49 217.851 1342.55 185.806 1343.28C162.873 1343.81 139.826 1344 116.947 1341.75C101.649 1340.25 80.9627 1338.45 68.4306 1327C50.2193 1310.33 83.0941 1253.64 89.785 1237.98C100.874 1212 111.875 1183.13 107.477 1153.07C106.128 1143.88 103.74 1135.76 103.43 1126.39C103.133 1118.34 103.963 1110.9 101.622 1103.2C98.7288 1093.66 85.8595 1078.84 90.2841 1070.06C93.2991 1064.05 102.243 1063.77 108.192 1061.85C117.841 1058.74 127.262 1054.65 136.359 1049.64C145.936 1044.33 154.091 1036.13 164.013 1031.74C180.12 1024.64 198.149 1023.97 215.079 1024C282.629 1024.13 351.036 1040.4 416.873 1057.4C451.158 1066.26 485.631 1075.69 518.951 1089.12C529.068 1093.2 540.535 1097.3 549.431 1104.83C554.982 1109.52 558.746 1115.4 565.052 1118.93C618.924 1149.05 681.207 1160.24 738.397 1181.99C753.283 1187.65 835.78 1216.26 792.646 1243.18C766.442 1259.53 738.754 1266.97 714.844 1289.34C707.559 1296.14 702.703 1301.77 699.856 1312.15C697.981 1319.06 702.494 1315.55 696.194 1322.77C688.552 1331.45 671.103 1334.96 661.68 1338.41Z" stroke="#313E40" stroke-opacity="0.5" stroke-width="5"/>
</g>
</g>
<defs>
<clipPath id="clip0">
<rect width="1600" height="1200" fill="white" transform="translate(-128 -65)"/>
</clipPath>
</defs>
</svg>
