<svg width="100%" height="100%" viewBox="0 0 89 89" fill="none" xmlns="http://www.w3.org/2000/svg">
<path fill-rule="evenodd" clip-rule="evenodd" d="M24.6389 3.76371C11.7766 10.7251 3.2445 22.6242 1.05626 36.652C-3.12224 63.4368 17.3578 87.6079 44.6534 88.1073C61.6686 88.4184 77.3869 78.7574 85.1287 63.23C87.1653 59.145 89.2421 52.3631 88.8402 51.1113C88.4814 49.9936 86.0013 48.7443 84.8654 49.109C84.3719 49.2674 82.9944 50.3567 81.8037 51.5301C78.5822 54.7053 74.9957 56.7271 69.4928 58.4705C61.0432 61.1475 53.5812 60.5191 45.7331 56.4694C38.2499 52.608 33.2319 47.0442 30.3513 39.4138C26.114 28.1895 28.5646 15.8276 36.968 6.03642C38.4227 4.3417 38.612 3.8362 38.3002 2.48294C37.6992 -0.120184 36.3336 -0.420375 31.5484 0.99906C29.3565 1.64887 26.2475 2.89322 24.6389 3.76371Z" fill="#BAE8E8"/>
</svg>
