<svg width="109" height="109" viewBox="0 0 109 109" fill="none" xmlns="http://www.w3.org/2000/svg">
<circle cx="5.27419" cy="5.27419" r="5.27419" fill="#E3F6F5"/>
<circle cx="29.887" cy="5.27419" r="5.27419" fill="#E3F6F5"/>
<circle cx="54.5" cy="5.27419" r="5.27419" fill="#E3F6F5"/>
<circle cx="79.1129" cy="5.27419" r="5.27419" fill="#E3F6F5"/>
<circle cx="103.726" cy="5.27419" r="5.27419" fill="#E3F6F5"/>
<circle cx="5.27419" cy="29.8871" r="5.27419" fill="#E3F6F5"/>
<circle cx="29.887" cy="29.8871" r="5.27419" fill="#E3F6F5"/>
<circle cx="54.5" cy="29.8871" r="5.27419" fill="#E3F6F5"/>
<circle cx="79.1129" cy="29.8871" r="5.27419" fill="#E3F6F5"/>
<circle cx="103.726" cy="29.8871" r="5.27419" fill="#E3F6F5"/>
<circle cx="5.27419" cy="54.5" r="5.27419" fill="#E3F6F5"/>
<circle cx="29.887" cy="54.5" r="5.27419" fill="#E3F6F5"/>
<circle cx="54.5" cy="54.5" r="5.27419" fill="#E3F6F5"/>
<circle cx="79.1129" cy="54.5" r="5.27419" fill="#E3F6F5"/>
<circle cx="103.726" cy="54.5" r="5.27419" fill="#E3F6F5"/>
<circle cx="5.27419" cy="79.1129" r="5.27419" fill="#E3F6F5"/>
<circle cx="29.887" cy="79.1129" r="5.27419" fill="#E3F6F5"/>
<circle cx="54.5" cy="79.1129" r="5.27419" fill="#E3F6F5"/>
<circle cx="79.1129" cy="79.1129" r="5.27419" fill="#E3F6F5"/>
<circle cx="103.726" cy="79.1129" r="5.27419" fill="#E3F6F5"/>
<circle cx="5.27419" cy="103.726" r="5.27419" fill="#E3F6F5"/>
<circle cx="29.887" cy="103.726" r="5.27419" fill="#E3F6F5"/>
<circle cx="54.5" cy="103.726" r="5.27419" fill="#E3F6F5"/>
<circle cx="79.1129" cy="103.726" r="5.27419" fill="#E3F6F5"/>
<circle cx="103.726" cy="103.726" r="5.27419" fill="#E3F6F5"/>
</svg>
