
<svg width="100%" height="100%" viewBox="0 0 89 71" fill="none" xmlns="http://www.w3.org/2000/svg">
<path fill-rule="evenodd" clip-rule="evenodd" d="M12.6066 45.9537L0.194216 34.0701L3.80584 30.6123L12.6066 39.0382L23.2132 28.8834L33.8198 39.0382L44.4264 28.8834L55.033 39.0382L65.6396 28.8834L76.2462 39.0382L85.047 30.6123L88.6587 34.0701L76.2462 45.9537L65.6396 35.7989L55.033 45.9537L44.4264 35.799L33.8198 45.9537L23.2132 35.799L12.6066 45.9537Z" fill="#E3F6F5"/>
<path fill-rule="evenodd" clip-rule="evenodd" d="M12.6066 17.2317L0.194216 5.34802L3.80584 1.89025L12.6066 10.3161L23.2132 0.161357L33.8198 10.3161L44.4264 0.161355L55.033 10.3161L65.6396 0.161353L76.2462 10.3161L85.047 1.89024L88.6587 5.34801L76.2462 17.2317L65.6396 7.0769L55.033 17.2317L44.4264 7.07691L33.8198 17.2317L23.2132 7.0769L12.6066 17.2317Z" fill="#E3F6F5"/>
<path fill-rule="evenodd" clip-rule="evenodd" d="M12.6066 70.8462L0.194216 58.9625L3.80584 55.5047L12.6066 63.9306L23.2132 53.7759L33.8198 63.9306L44.4264 53.7759L55.033 63.9306L65.6396 53.7759L76.2462 63.9306L85.047 55.5047L88.6587 58.9625L76.2462 70.8462L65.6396 60.6914L55.033 70.8462L44.4264 60.6914L33.8198 70.8462L23.2132 60.6914L12.6066 70.8462Z" fill="#E3F6F5"/>
</svg>
