<svg width="21" height="23" viewBox="0 0 21 23" fill="none" xmlns="http://www.w3.org/2000/svg">
<path fill-rule="evenodd" clip-rule="evenodd" d="M11.0147 0.43934L20.5607 9.98528C21.1464 10.5711 21.1464 11.5208 20.5607 12.1066L11.0147 21.6525C10.4289 22.2383 9.47919 22.2383 8.8934 21.6525C8.30761 21.0668 8.30761 20.117 8.8934 19.5312L15.8787 12.5459C15.8787 12.5459 2.5 12.5459 2 12.5459C0.5 12.546 0 12.046 0 11.046C0 10.046 0.5 9.54596 2 9.54594C2.5 9.54594 15.8787 9.54594 15.8787 9.54594L12.386 6.0533L8.8934 2.56066C8.30761 1.97487 8.30761 1.02513 8.8934 0.43934C9.47919 -0.146447 10.4289 -0.146447 11.0147 0.43934Z" fill="#272343"/>
</svg>
