<svg width="28" height="28" viewBox="0 0 28 28" fill="none" xmlns="http://www.w3.org/2000/svg">
<path d="M27.9998 15.3189C27.7496 16.5345 27.617 17.7923 27.2254 18.9579C25.7916 23.2213 22.9716 26.1666 18.8767 27.8117C17.8508 28.2245 17.5255 27.9745 17.5267 26.832C17.5267 25.7678 17.518 24.7035 17.5367 23.6406C17.5555 22.5776 17.3778 21.6159 16.6997 20.7735C17.4942 20.5696 18.2774 20.4235 19.0243 20.1657C21.4402 19.3361 22.5925 17.4974 22.9028 14.9868C23.1305 13.1225 22.9028 11.3966 21.6804 9.89254C21.5928 9.78739 21.6592 9.5489 21.6567 9.37195C21.6391 8.42823 21.6567 7.48323 21.5953 6.54207C21.5553 5.90096 21.1249 5.72145 20.5844 5.94456C19.6886 6.31384 18.8179 6.74595 17.9233 7.12036C17.6631 7.22935 17.339 7.32295 17.0801 7.26269C15.0525 6.78885 12.9465 6.79323 10.9208 7.27551C10.6806 7.33064 10.3791 7.23832 10.1376 7.13703C9.20553 6.75236 8.29347 6.30358 7.35638 5.92789C6.89472 5.74325 6.5882 5.94456 6.45933 6.47412C6.22412 7.43707 6.13154 8.38848 6.36925 9.36939C6.41038 9.6235 6.35388 9.88407 6.21161 10.0964C3.39785 14.0867 5.60607 19.6964 10.3403 20.5466C10.6643 20.6043 10.9896 20.6594 11.2611 20.7068C11.0372 21.2582 10.827 21.8249 10.5743 22.3737C10.4836 22.548 10.3362 22.6841 10.1576 22.7584C8.70509 23.3136 7.47023 22.8866 6.58569 21.5685C6.33547 21.2043 6.08525 20.8171 5.74244 20.5607C5.35617 20.282 4.9238 20.0774 4.4663 19.9567C4.25361 19.8965 3.97711 20.0785 3.72814 20.1504C3.86576 20.3658 3.95584 20.6632 4.14977 20.7915C4.96925 21.3185 5.4209 22.125 5.77622 22.9854C6.26791 24.1612 7.16246 24.6882 8.34476 24.7677C9.02162 24.8125 9.70473 24.7753 10.4717 24.7753C10.4717 25.5832 10.5004 26.4717 10.4617 27.3578C10.4366 27.9283 9.97622 28.1745 9.3419 27.886C8.26845 27.3975 7.15495 26.9372 6.19409 26.2614C2.04914 23.3418 -0.0614924 19.2413 -0.00769438 14.0982C0.0573637 7.1896 4.98051 1.41188 11.6415 0.239927C12.1081 0.157864 12.5773 0.0847771 13.044 0.00656128H14.9244C15.2497 0.0527215 15.5775 0.0873421 15.9003 0.146325C21.6491 1.18749 25.5138 4.5059 27.3642 10.199C27.6983 11.2248 27.7959 12.3377 28.0023 13.411L27.9998 15.3189Z" fill="black"/>
</svg>
