<svg width="28" height="28" viewBox="0 0 28 28" fill="none" xmlns="http://www.w3.org/2000/svg">
<path d="M28 13.9217C28 17.6519 28 21.3821 28 25.1123C28 27.0979 27.1005 28.0008 25.1299 28.0008C17.7527 28.0008 10.3756 28.0008 2.99839 28.0008C0.951157 28.0008 0 27.0596 0 25.029C0 17.5964 0 10.1637 0 2.73098C0 0.898628 0.891189 0.00410718 2.7452 0.00244141C10.2878 0.00244141 17.831 0.00244141 25.3747 0.00244141C27.1621 0.00244141 27.995 0.845323 27.9967 2.64769C28.0033 6.40235 28.0044 10.1603 28 13.9217ZM11.1574 10.87V23.3216H15.0853V22.3888C15.0853 20.3166 15.0669 18.2443 15.0853 16.1721C15.1069 14.4963 16.4962 13.4119 17.9454 13.895C18.9165 14.2182 19.213 15.0144 19.233 15.9056C19.2797 18.0878 19.2613 20.2699 19.273 22.4521C19.273 22.7436 19.3013 23.0334 19.3163 23.3133H23.3642C23.3642 22.1106 23.3825 20.9562 23.3642 19.8018C23.3292 18.0378 23.3758 16.2604 23.1809 14.5113C22.9727 12.689 21.9982 11.2897 20.1325 10.7783C18.2669 10.2669 16.6344 10.5868 15.3818 12.1926C15.3285 12.2625 15.2268 12.2942 15.0486 12.4008V10.87H11.1574ZM4.70581 10.87V23.3133H8.66203V10.875L4.70581 10.87ZM8.96686 6.82545C8.96686 5.57446 8.084 4.65995 6.86632 4.63996C6.57635 4.63375 6.28806 4.68546 6.01832 4.79205C5.74859 4.89864 5.50282 5.05797 5.29543 5.26072C5.08803 5.46346 4.92316 5.70555 4.81048 5.9728C4.69779 6.24005 4.63956 6.52709 4.63918 6.81713C4.63288 7.09999 4.68369 7.38123 4.78859 7.644C4.89349 7.90678 5.05031 8.1457 5.24967 8.34646C5.44904 8.54723 5.68686 8.70572 5.94889 8.81245C6.21093 8.91918 6.4918 8.97197 6.7747 8.96764C8.10066 8.97763 8.97186 8.12476 8.96686 6.82545Z" fill="black"/>
</svg>
